#!OML:ASF F:\VICON\USERDATA\INSTALL\rory3\rory3.ASF
:FULLY-SPECIFIED
:DEGREES
1476
root -0.0142746 15.962 -4.95013 -15.1185 3.72886 -716.869
lowerback 25.4411 0.127314 -6.0753
upperback 8.47982 -1.04732 3.51071
thorax -4.48755 -0.612788 7.67432
lowerneck -19.1217 -4.57369 -10.6131
upperneck 22.7957 -5.56453 9.10226
head 11.1118 -2.3589 4.25898
rclavicle -2.46493e-014 2.8625e-014
rhumerus -46.5992 21.9316 -93.0506
rradius 53.3421
rwrist -10.7466
rhand -42.8946 14.9759
rfingers 7.12502
rthumb -15.7569 -14.4027
lclavicle -2.46493e-014 2.8625e-014
lhumerus -40.1901 -20.9429 92.2339
lradius 82.9472
lwrist -18.5149
lhand -45.9172 20.9358
lfingers 7.12502
lthumb -18.666 50.0602
rfemur -68.1778 -4.26052 22.4471
rtibia 102.607
rfoot 8.3203 -6.50837
rtoes 6.24903
lfemur -75.8275 53.1315 -26.1015
ltibia 136.527
lfoot -19.7545 -7.07887
ltoes -17.088
1477
root -0.0142742 15.9472 -4.94258 -15.3227 3.22471 -716.939
lowerback 25.3965 0.12635 -5.82621
upperback 8.53724 -0.991916 3.47358
thorax -4.4216 -0.588569 7.46713
lowerneck -19.583 -4.47091 -10.4358
upperneck 22.9446 -5.36057 8.82297
head 11.2185 -2.27443 4.15823
rclavicle 2.78299e-015 -9.54166e-015
rhumerus -46.1011 21.2331 -92.7985
rradius 52.4931
rwrist -10.6155
rhand -42.5486 16.0393
rfingers 7.12502
rthumb -15.4236 -13.3653
lclavicle 2.78299e-015 -9.54166e-015
lhumerus -40.0729 -20.8712 91.9519
lradius 82.9711
lwrist -18.4266
lhand -45.8049 21.1179
lfingers 7.12502
lthumb -18.5581 50.2527
rfemur -68.9537 -3.84792 22.9437
rtibia 103.764
rfoot 8.83974 -6.86172
rtoes 7.73867
lfemur -75.5105 54.1216 -25.4727
ltibia 136.667
lfoot -19.8716 -7.53273
ltoes -17.7409
1478
root -0.0114995 15.9387 -4.93173 -15.3396 2.81699 -716.658
lowerback 25.1811 0.112039 -5.8954
upperback 8.53785 -1.0282 3.35781
thorax -4.31061 -0.611587 7.37946
lowerneck -19.9424 -4.30939 -10.452
upperneck 23.0455 -5.05509 8.67796
head 11.2868 -2.14811 4.157
rclavicle -1.11319e-014 6.36111e-015
rhumerus -45.6338 20.783 -92.5996
rradius 51.8193
rwrist -11.1238
rhand -42.1911 16.3802
rfingers 7.12502
rthumb -15.0793 -13.0505
lclavicle -1.11319e-014 6.36111e-015
lhumerus -40.1446 -20.5632 91.7141
lradius 83.1419
lwrist -18.4075
lhand -45.7495 21.3444
lfingers 7.12502
lthumb -18.5048 50.4842
rfemur -69.977 -3.59422 23.1016
rtibia 104.957
rfoot 10.1633 -7.30382
rtoes 8.4722
lfemur -75.2078 54.7882 -25.4007
ltibia 136.705
lfoot -20.1354 -7.82155
ltoes -18.6719
1479
root -0.0113115 15.9323 -4.92261 -15.3212 2.56681 -716.2
lowerback 25.0179 0.143781 -6.17025
upperback 8.47431 -1.05611 3.22777
thorax -4.29075 -0.626104 7.3979
lowerneck -20.1269 -4.21955 -10.5482
upperneck 23.1351 -4.84624 8.54897
head 11.3316 -2.07496 4.16031
rclavicle -1.82882e-014 1.11319e-014
rhumerus -45.2781 20.0589 -92.2975
rradius 51.2509
rwrist -11.3136
rhand -42.0173 16.0123
rfingers 7.12502
rthumb -14.9118 -13.431
lclavicle -1.82882e-014 1.11319e-014
lhumerus -40.3379 -20.2103 91.56
lradius 83.4038
lwrist -18.377
lhand -45.483 21.2568
lfingers 7.12502
lthumb -18.2484 50.4208
rfemur -71.0438 -3.51387 23.0336
rtibia 106.151
rfoot 11.5524 -7.80101
rtoes 10.3468
lfemur -74.7777 55.1445 -25.5172
ltibia 136.67
lfoot -20.3309 -8.01284
ltoes -19.2387
1480
root -0.0104775 15.9257 -4.91788 -15.4188 2.34101 -715.922
lowerback 25.0251 0.194068 -6.19901
upperback 8.45415 -1.0077 3.11192
thorax -4.32748 -0.599156 7.27219
lowerneck -20.3704 -4.23218 -10.5166
upperneck 23.1849 -4.80879 8.39536
head 11.3884 -2.06932 4.1035
rclavicle -2.38542e-014 1.43125e-014
rhumerus -44.9554 18.9159 -91.8401
rradius 51.0847
rwrist -11.6487
rhand -41.6515 15.1199
rfingers 7.12502
rthumb -14.5594 -14.3492
lclavicle -2.38542e-014 1.43125e-014
lhumerus -40.2056 -20.0733 91.3032
lradius 83.4611
lwrist -18.1352
lhand -44.9961 21.1383
lfingers 7.12502
lthumb -17.7799 50.3454
rfemur -71.9359 -3.45442 23.1379
rtibia 107.322
rfoot 12.4603 -8.12056
rtoes 12.4416
lfemur -74.2578 55.5227 -25.273
ltibia 136.679
lfoot -20.4086 -8.35401
ltoes -19.079
1481
root -0.00812913 15.9172 -4.9155 -15.5358 2.11863 -715.735
lowerback 25.0712 0.188346 -6.07817
upperback 8.47611 -0.997332 3.00153
thorax -4.33509 -0.592102 7.07597
lowerneck -20.7346 -4.20668 -10.4751
upperneck 23.2293 -4.71063 8.25491
head 11.4598 -2.03146 4.05952
rclavicle 9.93923e-015 -2.70347e-014
rhumerus -44.4546 17.7229 -91.2684
rradius 51.2656
rwrist -13.2003
rhand -40.7881 13.9412
rfingers 7.12502
rthumb -13.7274 -15.586
lclavicle 9.93923e-015 -2.70347e-014
lhumerus -39.8421 -19.8765 90.9654
lradius 83.292
lwrist -17.719
lhand -44.5661 20.753
lfingers 7.12502
lthumb -17.3661 49.9972
rfemur -72.793 -3.39928 23.3249
rtibia 108.497
rfoot 13.0591 -8.25961
rtoes 13.7396
lfemur -73.9105 55.8329 -25.0462
ltibia 136.717
lfoot -20.4005 -8.62054
ltoes -18.7707
